<svg xmlns="http://www.w3.org/2000/svg" width="1600" height="900" viewBox="0 0 1600 900" role="img" aria-labelledby="title desc">
  <title id="title">DexHiL methodology placeholder</title>
  <desc id="desc">Placeholder figure for the DexHiL methodology illustration.</desc>
  <rect width="1600" height="900" fill="#f5f5f5"/>
  <rect x="70" y="70" width="1460" height="760" rx="24" fill="#ffffff" stroke="#dbdbdb" stroke-width="4"/>
  <rect x="140" y="190" width="360" height="470" rx="20" fill="#fafafa" stroke="#d6d6d6" stroke-width="3"/>
  <rect x="620" y="190" width="360" height="470" rx="20" fill="#fafafa" stroke="#d6d6d6" stroke-width="3"/>
  <rect x="1100" y="190" width="360" height="470" rx="20" fill="#fafafa" stroke="#d6d6d6" stroke-width="3"/>
  <text x="800" y="145" text-anchor="middle" fill="#363636" font-family="Noto Sans, sans-serif" font-size="42">Methodology Figure Placeholder</text>
  <text x="320" y="250" text-anchor="middle" fill="#4a4a4a" font-family="Noto Sans, sans-serif" font-size="28">Arm-Hand Teleoperation</text>
  <text x="800" y="250" text-anchor="middle" fill="#4a4a4a" font-family="Noto Sans, sans-serif" font-size="28">Intervention Collection</text>
  <text x="1280" y="250" text-anchor="middle" fill="#4a4a4a" font-family="Noto Sans, sans-serif" font-size="28">Post-Training</text>
  <text x="320" y="420" text-anchor="middle" fill="#7a7a7a" font-family="Noto Sans, sans-serif" font-size="26">Replace with Fig. 2</text>
  <text x="800" y="420" text-anchor="middle" fill="#7a7a7a" font-family="Noto Sans, sans-serif" font-size="26">DexHiL_FrameWork.pdf</text>
  <text x="1280" y="420" text-anchor="middle" fill="#7a7a7a" font-family="Noto Sans, sans-serif" font-size="26">Pipeline Overview</text>
  <path d="M500 425 H600" stroke="#9a9a9a" stroke-width="8" stroke-linecap="round"/>
  <path d="M980 425 H1080" stroke="#9a9a9a" stroke-width="8" stroke-linecap="round"/>
  <path d="M585 425 L555 405 M585 425 L555 445" stroke="#9a9a9a" stroke-width="8" stroke-linecap="round" stroke-linejoin="round"/>
  <path d="M1065 425 L1035 405 M1065 425 L1035 445" stroke="#9a9a9a" stroke-width="8" stroke-linecap="round" stroke-linejoin="round"/>
  <text x="800" y="760" text-anchor="middle" fill="#7a7a7a" font-family="Noto Sans, sans-serif" font-size="24">Place your final framework figure at static/images/methodology-placeholder.svg or update the image path in index.html.</text>
</svg>